<svg width="197" height="189" viewBox="0 0 197 189" fill="none" xmlns="http://www.w3.org/2000/svg">
<path fill-rule="evenodd" clip-rule="evenodd" d="M142.714 22.0262H66.3829C60.4965 22.0262 55.6763 26.8512 55.6763 32.7434V51.2442C54.6973 51.2442 53.8991 52.0556 53.8991 53.0231V68.0783C53.8991 69.0458 54.6973 69.8573 55.6763 69.8573V165.401C55.6763 171.293 60.4902 176.118 66.3829 176.118H142.714C148.606 176.118 153.42 171.299 153.42 165.401V84.3819C153.47 84.3819 153.52 84.3882 153.57 84.3882C154.549 84.3882 155.347 83.5892 155.347 82.6093V67.554C155.347 66.5741 154.549 65.7751 153.57 65.7751C153.52 65.7751 153.47 65.7751 153.42 65.7751V60.6506C153.47 60.6506 153.52 60.6568 153.57 60.6568C154.549 60.6568 155.347 59.8579 155.347 58.8779V43.8226C155.347 42.8427 154.549 42.0437 153.57 42.0437C153.52 42.0437 153.47 42.0437 153.42 42.05V32.7309C153.42 26.8324 148.606 22.0138 142.714 22.0138V22.0262Z" fill="url(#paint0_linear_1_25)"/>
<path fill-rule="evenodd" clip-rule="evenodd" d="M142.714 24.8853H66.3829C62.0616 24.8853 58.5323 28.4244 58.5323 32.7437V165.401C58.5323 169.72 62.0741 173.259 66.3829 173.259H142.714C147.029 173.259 150.564 169.72 150.564 165.401V32.7437C150.564 28.4182 147.029 24.8853 142.714 24.8853Z" fill="url(#paint1_linear_1_25)"/>
<path d="M66.3829 28.1063H142.714C145.27 28.1063 147.347 30.1849 147.347 32.744V165.401C147.347 167.96 145.27 170.039 142.714 170.039H66.3829C63.8263 170.039 61.7498 167.96 61.7498 165.401V32.744C61.7498 30.1849 63.8263 28.1063 66.3829 28.1063Z" fill="#B5BEFD"/>
<path fill-rule="evenodd" clip-rule="evenodd" d="M85.9068 60.9634C81.4607 60.9634 77.8565 57.3556 77.8565 52.9052C77.8565 48.4548 81.4607 44.847 85.9068 44.847C90.3528 44.847 93.957 48.4548 93.957 52.9052C93.957 57.3556 90.3528 60.9634 85.9068 60.9634ZM73.5789 64.9831C74.7138 66.1441 76.0108 67.1427 77.4387 67.9479L77.2205 72.0488L80.6189 73.2535L83.0259 69.9266L83.955 70.0577H87.8835L90.1096 73.5032L93.1526 72.6355L93.2586 72.5981L93.5704 72.4795V68.3786L94.2438 68.0228L97.5737 65.6198L97.9416 65.7571L101.396 67.0928C102.207 66.2065 102.943 65.2452 103.597 64.2278L101.184 60.9134C101.926 59.4903 102.481 57.9486 102.812 56.3194L106.765 55.2646L106.859 51.6506L102.961 50.3897C102.724 48.7481 102.25 47.1752 101.583 45.7146L104.165 42.5313C103.566 41.4764 102.88 40.484 102.119 39.5539L98.2222 40.8273L94.3685 37.8624L94.5868 33.7678C93.5018 33.2747 92.3607 32.869 91.1821 32.5631L88.7752 35.8837L83.9114 35.7589L81.6852 32.3134L78.2244 33.3371V37.438C76.7591 38.1683 75.4122 39.0983 74.2211 40.1968L73.1923 39.8036L70.3987 38.7238C69.588 39.6101 68.8522 40.5714 68.1975 41.5888L70.6107 44.9032C69.8687 46.3263 69.3137 47.868 68.9894 49.4971L65.0298 50.552L64.9362 54.166L68.8335 55.4269C69.0705 57.0685 69.5444 58.6352 70.2116 60.0957L67.6301 63.2791C68.2287 64.3277 68.9146 65.3264 69.6753 66.2564L73.5726 64.9831H73.5789Z" fill="#8A96F8"/>
<path fill-rule="evenodd" clip-rule="evenodd" d="M97.1374 62.4237C97.0438 62.4237 96.944 62.3925 96.8692 62.3238C96.6884 62.174 96.6634 61.9056 96.8131 61.7246C98.8646 59.2529 99.9995 56.1195 99.9995 52.9049C99.9995 51.3632 99.7501 49.8465 99.2512 48.4046C99.1764 48.1799 99.2949 47.9427 99.5131 47.8616C99.7376 47.7867 99.9746 47.9052 100.049 48.1237C100.579 49.6592 100.841 51.2633 100.841 52.8987C100.841 56.313 99.6441 59.6399 97.4616 62.2677C97.3805 62.3675 97.2558 62.4237 97.1374 62.4237Z" fill="white"/>
<path fill-rule="evenodd" clip-rule="evenodd" d="M95.9462 42.9697C95.8402 42.9697 95.7404 42.9323 95.6531 42.8511C94.2751 41.5526 92.6725 40.5662 90.9016 39.9232C90.6833 39.842 90.5711 39.5985 90.6459 39.38C90.727 39.1615 90.9702 39.0429 91.1884 39.1241C93.0716 39.8046 94.7677 40.8534 96.2331 42.2331C96.4014 42.3954 96.4139 42.6638 96.2518 42.8324C96.1707 42.9198 96.0585 42.9635 95.9462 42.9635V42.9697Z" fill="white"/>
<path fill-rule="evenodd" clip-rule="evenodd" d="M82.7141 39.5292C82.527 39.5292 82.3524 39.3981 82.3025 39.2108C82.2464 38.986 82.3836 38.755 82.6081 38.6926C83.7741 38.3992 84.9838 38.2494 86.1998 38.2494C86.4368 38.2494 86.6238 38.4366 86.6238 38.6739C86.6238 38.9111 86.4368 39.0984 86.1998 39.0984C85.0524 39.0984 83.9176 39.242 82.8138 39.5167C82.7764 39.5229 82.7452 39.5292 82.7078 39.5292H82.7141Z" fill="white"/>
<path fill-rule="evenodd" clip-rule="evenodd" d="M112.552 103.066C107.152 103.066 102.774 98.6838 102.774 93.2784C102.774 87.8729 107.152 83.4912 112.552 83.4912C117.952 83.4912 122.329 87.8729 122.329 93.2784C122.329 98.6838 117.952 103.066 112.552 103.066ZM97.5863 107.94C98.9643 109.351 100.536 110.568 102.269 111.542L102.001 116.517L106.129 117.977L109.054 113.939L110.182 114.101H114.953L117.659 118.283L121.35 117.234L121.475 117.184L121.855 117.041V112.06L122.672 111.629L126.719 108.714L127.162 108.883L131.359 110.506C132.344 109.426 133.236 108.265 134.027 107.029L131.103 103.003C132.007 101.274 132.681 99.4016 133.073 97.4292L137.875 96.1496L137.987 91.7616L133.254 90.2323C132.967 88.235 132.394 86.3312 131.577 84.5585L134.713 80.6949C133.99 79.4153 133.154 78.2106 132.232 77.0809L127.499 78.6288L122.816 75.0273L123.084 70.0526C121.768 69.4534 120.384 68.9603 118.95 68.592L116.031 72.6242L110.126 72.4682L107.42 68.2861L103.217 69.5345V74.5155C101.44 75.4018 99.8062 76.5316 98.3595 77.8673L97.1124 77.3867L93.7202 76.0759C92.7349 77.1558 91.8432 78.3167 91.0513 79.5526L93.9821 83.5786C93.0779 85.3076 92.4044 87.1801 92.0116 89.1525L87.2039 90.4321L87.0854 94.8201L91.8183 96.3493C92.1114 98.3405 92.6788 100.244 93.4957 102.023L90.3591 105.887C91.0825 107.166 91.9181 108.371 92.8409 109.501L97.5738 107.959L97.5863 107.94Z" fill="#8D96DE"/>
<path fill-rule="evenodd" clip-rule="evenodd" d="M126.195 104.837C126.083 104.837 125.965 104.8 125.865 104.719C125.647 104.538 125.615 104.213 125.796 103.995C128.29 100.992 129.662 97.191 129.662 93.2836C129.662 91.4111 129.357 89.576 128.752 87.822C128.658 87.5536 128.802 87.2603 129.07 87.1666C129.338 87.073 129.631 87.2166 129.725 87.485C130.367 89.345 130.691 91.2987 130.691 93.2836C130.691 97.4344 129.238 101.473 126.588 104.656C126.488 104.781 126.339 104.843 126.195 104.843V104.837Z" fill="white"/>
<path fill-rule="evenodd" clip-rule="evenodd" d="M124.749 81.2123C124.624 81.2123 124.493 81.1686 124.393 81.075C122.716 79.4955 120.777 78.2969 118.625 77.5165C118.357 77.4166 118.22 77.1232 118.314 76.8548C118.413 76.5863 118.706 76.449 118.975 76.5488C121.257 77.3792 123.321 78.6465 125.098 80.3258C125.304 80.5194 125.316 80.8502 125.117 81.0563C125.017 81.1624 124.88 81.2186 124.742 81.2186L124.749 81.2123Z" fill="white"/>
<path fill-rule="evenodd" clip-rule="evenodd" d="M108.673 77.0365C108.442 77.0365 108.23 76.8804 108.174 76.6494C108.106 76.3747 108.274 76.0938 108.548 76.0251C109.964 75.6693 111.436 75.482 112.913 75.482C113.2 75.482 113.431 75.713 113.431 76.0002C113.431 76.2873 113.2 76.5183 112.913 76.5183C111.523 76.5183 110.139 76.6869 108.804 77.0303C108.76 77.0427 108.717 77.049 108.679 77.049L108.673 77.0365Z" fill="white"/>
<path fill-rule="evenodd" clip-rule="evenodd" d="M41.7148 171.012C43.2363 174.951 43.2239 180.288 41.7086 183.977C43.2239 180.288 43.2426 174.963 41.7211 171.025C41.7211 171.025 41.7211 171.025 41.7211 171.018L41.7148 171.012Z" fill="#6764F0"/>
<path fill-rule="evenodd" clip-rule="evenodd" d="M74.0792 166.024C74.0105 166.38 73.9231 166.823 73.8295 167.353C73.9231 166.829 74.0043 166.38 74.0792 166.03V166.024Z" fill="#3F3DF9"/>
<path fill-rule="evenodd" clip-rule="evenodd" d="M71.859 167.953C71.859 167.953 71.859 167.966 71.859 167.972C71.859 167.966 71.859 167.959 71.859 167.953ZM71.859 167.984C71.859 167.984 71.859 167.997 71.859 168.009C71.859 168.003 71.859 167.997 71.859 167.984ZM71.8528 168.015C71.8528 168.015 71.8528 168.04 71.8528 168.047C71.8528 168.034 71.8528 168.022 71.8528 168.015ZM71.8528 168.059C71.8465 168.165 71.834 168.265 71.8278 168.359C71.8403 168.265 71.8465 168.165 71.8528 168.059ZM71.8216 168.365C71.8216 168.365 71.8216 168.384 71.8216 168.396C71.8216 168.384 71.8216 168.378 71.8216 168.365Z" fill="#6966F0"/>
<path fill-rule="evenodd" clip-rule="evenodd" d="M56.6816 156.617L58.8578 156.455C60.1923 158.97 60.9717 161.841 61.1713 164.657C61.4082 167.996 61.3396 171.984 60.2422 175.324L58.0909 175.48C59.6248 170.093 59.868 161.879 56.6816 156.617Z" fill="#BDC5F6"/>
<path fill-rule="evenodd" clip-rule="evenodd" d="M99.0653 189C126.434 189 148.757 186.659 148.757 183.788C148.757 180.917 126.434 178.582 99.0653 178.582C71.697 178.582 49.3734 180.923 49.3734 183.788C49.3734 186.653 71.697 189 99.0653 189Z" fill="#D8DCF9"/>
<path fill-rule="evenodd" clip-rule="evenodd" d="M66.7896 163.839C66.9206 163.839 67.064 163.795 67.17 163.701C67.4257 163.489 67.4631 163.108 67.2511 162.859C64.3515 159.369 62.7489 154.938 62.7489 150.387C62.7489 148.209 63.1043 146.068 63.809 144.027C63.915 143.715 63.7528 143.372 63.4348 143.266C63.123 143.159 62.7801 143.322 62.6741 143.64C61.9258 145.806 61.5517 148.078 61.5517 150.387C61.5517 155.219 63.2478 159.919 66.3282 163.626C66.4466 163.77 66.615 163.845 66.7896 163.845V163.839Z" fill="white"/>
<path fill-rule="evenodd" clip-rule="evenodd" d="M54.337 156.075C59.1509 156.986 65.187 158.865 72.4453 161.705C71.9527 161.836 71.4913 161.992 71.0548 162.18C61.0341 158.534 54.3869 156.705 51.1256 156.687C51.7056 156.487 52.2855 156.35 52.8592 156.275C52.8093 150.932 52.5349 146.207 52.0298 142.087C53.2645 148.473 54.0315 153.129 54.337 156.069V156.075Z" fill="#7C8CEC"/>
<path fill-rule="evenodd" clip-rule="evenodd" d="M72.4455 161.705C74.6779 161.037 76.6545 161.187 78.3818 162.148L76.9352 167.185C76.773 167.753 77.0973 168.202 77.6585 168.177L76.3178 168.234C75.713 167.897 75.0894 167.678 74.4471 167.591C73.2249 168.371 71.6161 168.202 69.627 167.085C69.4835 165.081 69.9886 163.459 71.1422 162.21C71.1173 162.204 71.0861 162.192 71.0612 162.179C71.4977 161.992 71.9591 161.836 72.4517 161.705H72.4455Z" fill="#F9B78A"/>
<path fill-rule="evenodd" clip-rule="evenodd" d="M55.8399 170.705C55.5344 168.895 55.2288 166.948 54.9358 164.875C58.7146 165.868 63.6283 166.804 69.6893 167.691C69.6644 167.485 69.6394 167.285 69.627 167.091C71.6161 168.209 73.2249 168.377 74.4471 167.597C75.0894 167.684 75.713 167.903 76.3178 168.24L62.7553 168.808C62.9174 169.725 63.3165 170.424 63.9338 170.849C61.0841 170.974 58.3841 170.924 55.8399 170.705Z" fill="#7C8CEC"/>
<path fill-rule="evenodd" clip-rule="evenodd" d="M78.3817 162.148C77.0909 161.424 75.6505 161.162 74.0729 161.355C71.4789 155.75 73.0814 147.773 69.4336 135.608C72.065 136.931 75.133 143.329 78.6312 154.808C79.0115 155.132 79.5229 155.494 80.1776 155.906L78.3817 162.148Z" fill="#A0ACF2"/>
<path fill-rule="evenodd" clip-rule="evenodd" d="M69.4336 135.608C73.0877 147.78 71.4789 155.751 74.073 161.356C73.5429 161.418 73.0004 161.537 72.4455 161.705C65.1872 158.865 59.151 156.986 54.3371 156.075C54.0378 153.135 53.2646 148.479 52.0299 142.094C52.535 146.213 52.8094 150.938 52.8593 156.281C52.2793 156.356 51.7057 156.487 51.1258 156.693C54.387 156.712 61.0342 158.541 71.0549 162.186L71.136 162.217C69.9824 163.465 69.4773 165.088 69.6207 167.092C69.6332 167.285 69.6581 167.485 69.6831 167.691C63.6282 166.805 58.7083 165.862 54.9295 164.876C51.8179 164.058 49.4795 163.21 47.9144 162.323C43.8238 155.507 43.1815 146.7 46 135.914C47.5215 133.973 50.92 133.243 56.1953 133.742C61.6952 138.392 64.2144 138.611 63.7467 134.41C66.1474 134.472 68.0431 134.878 69.4274 135.615L69.4336 135.608Z" fill="#A0ACF2"/>
<path fill-rule="evenodd" clip-rule="evenodd" d="M69.6019 135.695C72.8632 142.461 73.4244 156.212 74.9272 157.698C75.4946 158.384 76.8353 159.221 78.9367 160.207L78.8993 160.344L78.3817 162.148C77.0909 161.424 75.6505 161.162 74.0729 161.355C71.4789 155.75 73.0814 147.773 69.4336 135.608C69.4897 135.633 69.5458 135.664 69.6019 135.701V135.695Z" fill="#7C8CEC"/>
<path fill-rule="evenodd" clip-rule="evenodd" d="M98.5228 169.95L65.7793 171.317C64.0957 171.386 63.0419 170.449 62.7488 168.801L99.614 167.265H99.7138C100.069 167.247 100.593 167.403 100.425 168.395C100.275 169.213 99.4145 169.912 98.5228 169.95Z" fill="#A8B2F3"/>
<path fill-rule="evenodd" clip-rule="evenodd" d="M103.892 149.651L82.7341 150.531C82.1729 150.556 81.5805 151.043 81.4121 151.611L76.9287 167.184C76.7666 167.752 77.0908 168.201 77.652 168.176L98.8096 167.29C99.3708 167.265 99.9632 166.778 100.132 166.21L104.615 150.637C104.777 150.069 104.453 149.619 103.892 149.644V149.651Z" fill="white"/>
<path fill-rule="evenodd" clip-rule="evenodd" d="M102.002 155.98L99.2462 165.562C99.109 166.036 98.6039 166.473 98.105 166.492L78.7995 167.297C78.3131 167.316 78.0824 166.929 78.2133 166.479L80.0528 160.087C81.6429 160.287 83.3016 160.393 85.0039 160.393C86.2822 160.393 87.5356 160.337 88.7578 160.219C89.001 160.868 89.6121 161.311 90.404 161.311C91.4142 161.311 92.3682 160.587 92.705 159.638C96.4027 158.883 99.6078 157.61 102.002 155.98Z" fill="#A8B2F3"/>
<path fill-rule="evenodd" clip-rule="evenodd" d="M108.338 172.671C106.723 171.616 105.476 170.642 104.59 169.737C103.218 170.355 101.915 170.917 100.668 171.416C97.6623 171.029 94.1454 170.655 90.1172 170.293L98.5228 169.943C99.4208 169.906 100.275 169.207 100.425 168.389C100.593 167.397 100.069 167.24 99.7138 167.253H99.6141L98.8097 167.29C99.3709 167.265 99.9633 166.779 100.132 166.211L102.345 158.514C103.698 158.439 104.896 158.415 105.937 158.439C111.873 160.593 116.993 169.425 128.03 176.778C127.849 178.707 126.901 179.936 125.423 181.166C119.631 178.682 113.806 175.923 110.389 173.925C109.653 173.495 108.968 173.077 108.338 172.665V172.671Z" fill="#4C61DF"/>
<path fill-rule="evenodd" clip-rule="evenodd" d="M139.834 177.602C135.444 181.478 132.189 183.819 130.262 184.712C128.186 185.673 127.6 184.943 127.088 182.521C132.875 180.679 129.726 179.406 131.896 177.952C134.222 177.808 136.866 176.722 139.828 174.694C141.686 174.5 141.904 175.642 139.828 177.602H139.834Z" fill="#455BDD"/>
<path fill-rule="evenodd" clip-rule="evenodd" d="M138.687 172.552C138.5 173.906 138.375 174.556 138.2 175.742L138.113 175.798L138.069 175.823L138.019 175.848L137.932 175.898L137.845 175.954L137.807 175.979L137.758 176.004L137.677 176.047H137.67L137.583 176.104L137.552 176.122L137.321 176.247L137.29 176.26L137.234 176.291L137.165 176.328H137.146L137.059 176.384L137.034 176.397L136.972 176.428L136.903 176.459L136.885 176.472L136.797 176.515L136.779 176.528L136.71 176.559L136.648 176.59L136.623 176.603L136.535 176.647H136.517L136.448 176.69L136.392 176.715L136.361 176.728L136.273 176.765H136.261L136.186 176.803L136.136 176.828L136.018 176.878H136.012L135.887 176.934L135.849 176.952L135.762 176.99L135.681 177.027L135.637 177.046L135.594 177.065L135.513 177.096L135.432 177.127L135.394 177.14L135.351 177.158L135.27 177.19L135.188 177.221L135.157 177.233L135.107 177.252L135.033 177.277H135.026L134.945 177.308L134.914 177.321L134.864 177.339L134.796 177.364H134.783L134.702 177.396H134.677L134.621 177.421L134.54 177.446L134.459 177.47H134.44L134.378 177.495L134.315 177.514H134.297L134.216 177.545H134.197L134.135 177.57L134.079 177.583H134.054L133.973 177.614H133.96L133.891 177.633L133.842 177.645H133.817L133.736 177.67L133.58 177.708L133.499 177.726L133.424 177.745L133.38 177.758H133.343L133.262 177.783L133.187 177.795L133.112 177.808L133.037 177.82L132.962 177.833H132.931L132.888 177.845C132.9 177.701 132.931 177.545 132.981 177.371C134.652 175.748 136.13 173.994 137.053 170.517C138.337 169.156 139.011 169.712 138.712 172.546L138.687 172.552ZM137.614 179.518C137.271 181.384 136.86 183.113 136.454 184.006C135.588 185.903 133.979 184.929 132.22 183.606C133.655 182.676 135.469 181.322 137.614 179.518Z" fill="#324AD8"/>
<path fill-rule="evenodd" clip-rule="evenodd" d="M135.07 177.252L135.014 177.271H135.008L134.927 177.302L134.895 177.314L134.845 177.333L134.777 177.358H134.764L134.683 177.389H134.658L134.602 177.414L134.521 177.439L134.44 177.464H134.421L134.359 177.489L134.297 177.508H134.278L134.197 177.539H134.178L134.116 177.564L134.06 177.577H134.035L133.954 177.608H133.941L133.873 177.626L133.823 177.639H133.798L133.717 177.664L133.561 177.701L133.48 177.72L133.405 177.739L133.361 177.751H133.324L133.243 177.776L133.168 177.789L133.093 177.801L133.018 177.814L132.944 177.826H132.912L132.869 177.839C132.881 177.695 132.912 177.539 132.962 177.364C134.633 175.741 136.111 173.987 137.034 170.511C137.371 170.155 137.664 169.93 137.907 169.843C137.714 172.708 136.772 175.173 135.082 177.239L135.07 177.252Z" fill="#455BDD"/>
<path fill-rule="evenodd" clip-rule="evenodd" d="M127.656 182.34C127.132 181.629 126.558 181.098 125.929 180.736C126.939 179.812 127.637 178.838 127.924 177.521C129.071 178.126 130.181 178.476 131.26 178.57C130.487 179.737 131.934 180.848 127.662 182.334L127.656 182.34Z" fill="#F9B78A"/>
<path fill-rule="evenodd" clip-rule="evenodd" d="M66.3592 183.108C59.2942 182.658 56.4133 177.371 56.5505 170.755C58.8826 170.924 61.3457 170.955 63.9335 170.842C64.4199 171.18 65.0372 171.342 65.7792 171.311L90.117 170.293C94.1452 170.655 97.6621 171.023 100.668 171.417C102.52 171.654 104.172 171.897 105.631 172.147C106.673 172.428 108.232 173.008 110.314 173.882L110.383 173.926C113.8 175.923 119.624 178.688 125.417 181.166C125.592 181.023 125.754 180.879 125.916 180.73C126.546 181.092 127.126 181.622 127.643 182.334C127.469 182.396 127.282 182.459 127.082 182.521C127.088 182.565 127.101 182.602 127.107 182.646C110.607 184.144 105.176 181.635 100.805 180.311C86.4816 182.87 79.5912 183.807 66.3467 183.108H66.3592Z" fill="#4C61DF"/>
<path fill-rule="evenodd" clip-rule="evenodd" d="M58.2217 125.445C58.7642 123.211 58.864 120.67 59.5998 119.691C65.5486 117.593 66.2158 120.889 68.841 121.519C68.866 122.337 68.6165 123.248 68.0927 124.26C68.2923 127.867 67.4442 130.096 65.5548 130.944C65.0747 131.45 64.289 131.743 63.1915 131.831C63.2975 132.293 63.6155 133.966 63.7527 134.39C64.2204 138.591 61.7012 138.366 56.2013 133.722H56.1764C56.2076 132.243 56.3323 131.107 56.3073 129.996C56.2886 129.234 56.2637 128.566 56.2138 127.973C54.2433 125.92 53.8505 124.253 55.0415 122.98C56.6004 122.243 57.5046 123.292 57.754 126.126C58.2217 125.945 57.8974 126.101 58.2155 125.439L58.2217 125.445Z" fill="#F9B78A"/>
<path fill-rule="evenodd" clip-rule="evenodd" d="M68.8409 121.526C66.2157 120.895 65.5547 117.6 59.5997 119.697C58.8638 120.677 58.7641 123.217 58.2216 125.452C57.9036 126.114 58.2278 125.957 57.7601 126.139C57.5107 123.298 56.6065 122.25 55.0476 122.993C53.8566 124.266 54.2495 125.933 56.2199 127.986C56.2636 128.573 56.2948 129.247 56.3135 130.008C50.77 124.896 51.8924 117.949 55.2659 115.671C54.4428 115.758 53.6072 116.077 52.7529 116.626C53.9813 114.978 55.64 114.404 57.7165 114.909C57.492 113.742 57.5357 112.881 57.8474 112.325C57.941 113.112 58.0969 113.724 58.3151 114.154C59.6495 112.931 62.2186 112.65 64.8438 113.636C68.2423 114.916 71.7529 118.043 73.0936 117.113C72.8941 120.321 71.067 122.275 68.8409 121.532V121.526Z" fill="#455BDD"/>
<path fill-rule="evenodd" clip-rule="evenodd" d="M59.6871 130.832C60.6723 131.469 61.8446 131.806 63.1915 131.843C63.2477 132.099 63.3724 132.73 63.4971 133.311C61.7948 132.855 60.5227 132.025 59.6871 130.832Z" fill="#EE7E57"/>
<path fill-rule="evenodd" clip-rule="evenodd" d="M100.375 167.608C102.233 166.953 103.836 166.166 105.176 165.243C105.8 165.848 106.423 166.441 107.041 167.021C113.108 172.683 118.963 177.008 124.588 179.674C125.143 179.936 125.698 180.185 126.253 180.416C126.147 180.522 126.035 180.629 125.922 180.735L125.423 181.172C124.282 180.679 123.135 180.179 122.006 179.68C117.423 177.633 113.127 175.535 110.383 173.931C110.358 173.919 110.333 173.906 110.314 173.887C109.604 173.469 108.943 173.064 108.338 172.67C107.876 172.371 107.446 172.077 107.041 171.79C106.037 171.066 105.22 170.386 104.59 169.743C103.218 170.361 101.915 170.923 100.668 171.422C98.9718 171.203 97.1198 170.991 95.0994 170.779C93.5343 170.617 91.8756 170.454 90.1172 170.298L95.0994 170.092L98.5228 169.949C99.4208 169.911 100.275 169.212 100.425 168.395C100.487 168.033 100.456 167.783 100.375 167.608Z" fill="#455BDD"/>
<path fill-rule="evenodd" clip-rule="evenodd" d="M67.3694 179.675C71.4849 180.83 77.2092 180.974 84.5424 180.106C85.7957 179.963 87.0054 179.819 88.1715 179.675C90.6782 179.363 92.9854 179.051 95.0993 178.727C97.2007 178.408 99.1151 178.084 100.83 177.753C102.077 178.49 103.524 179.132 105.151 179.675C105.756 179.875 106.386 180.062 107.047 180.237C112.197 181.61 118.951 182.166 127.313 181.898C127.431 182.035 127.543 182.178 127.656 182.334C127.475 182.397 127.294 182.459 127.094 182.522L127.119 182.647C117.086 183.558 111.144 182.984 107.047 182.104C104.409 181.536 102.532 180.836 100.817 180.318C98.7721 180.68 96.8827 181.017 95.1056 181.317C84.4052 183.115 77.7143 183.72 66.3592 183.115C63.1977 182.915 60.8718 181.741 59.2817 179.919C57.3175 177.666 56.4757 174.42 56.5505 170.762C56.8685 170.787 57.1865 170.806 57.5108 170.825C58.1593 170.862 58.814 170.887 59.4813 170.899C59.712 175.337 62.3434 178.265 67.3694 179.682V179.675Z" fill="#455BDD"/>
<path fill-rule="evenodd" clip-rule="evenodd" d="M90.9713 157.817C90.1794 157.817 89.4373 158.46 89.3064 159.246C89.1754 160.039 89.7117 160.676 90.5036 160.676C91.2956 160.676 92.0376 160.033 92.1686 159.246C92.2995 158.453 91.7632 157.817 90.9713 157.817Z" fill="#A8B2F3"/>
<path d="M133.021 43.7306H119.099V48.5371H133.021V43.7306Z" fill="#CBD1F7"/>
<path fill-rule="evenodd" clip-rule="evenodd" d="M119.165 41.3168C118.321 40.9163 117.76 40.1832 117.76 39.0722V38.7246C117.596 29.119 109.245 26.4286 108.573 15.8027C108.52 15.0092 108.528 14.2232 108.588 13.4675C109.896 5.41117 117.468 0 125.983 0C135.686 0 144.171 7.02847 143.551 16.9892C142.908 27.2977 134.954 29.9126 134.797 39.231C134.797 40.2361 133.728 41.4 132.823 41.3244H119.173L119.165 41.3168Z" fill="#F6D09C"/>
<path fill-rule="evenodd" clip-rule="evenodd" d="M133.486 49.8412C133.383 50.8907 132.49 51.7126 131.406 51.7126H129.805L129.185 52.7254C128.831 53.3052 128.617 53.3419 127.93 53.3419H124.175C123.489 53.3419 123.282 53.3052 122.921 52.7254L122.301 51.7126H120.7C119.637 51.7126 118.752 50.9127 118.626 49.8779V49.1513C118.685 48.9165 118.899 48.7403 119.15 48.7403H132.948C133.206 48.7403 133.42 48.9238 133.472 49.1587C133.472 49.1807 133.464 49.2247 133.472 49.2321V49.8339L133.486 49.8412ZM119.357 45.0635H132.763C133.169 45.0635 133.501 45.3938 133.501 45.7974V46.935C133.501 47.3386 133.169 47.6689 132.763 47.6689H119.357C118.951 47.6689 118.619 47.3386 118.619 46.935V45.7974C118.619 45.3938 118.951 45.0635 119.357 45.0635ZM119.386 41.328H132.734C133.154 41.328 133.501 41.6729 133.501 42.0912V43.2728C133.501 43.6911 133.154 44.0361 132.734 44.0361H119.386C118.966 44.0361 118.619 43.6911 118.619 43.2728V42.0912C118.619 41.6729 118.966 41.328 119.386 41.328Z" fill="url(#paint2_linear_1_25)"/>
<path fill-rule="evenodd" clip-rule="evenodd" d="M123.943 41.3203L122.514 23.5092H120.438C119.538 23.5092 118.727 23.1342 118.139 22.5295C117.551 21.9172 117.179 21.0829 117.179 20.1644C117.179 19.2459 117.543 18.4039 118.131 17.7993C118.719 17.1946 119.53 16.8195 120.431 16.8195C121.331 16.8195 122.083 17.1869 122.656 17.7687C123.236 18.3657 123.608 19.1923 123.683 20.0955L123.846 22.0014H130.194L130.358 20.0955C130.432 19.1923 130.804 18.3657 131.385 17.7687C131.958 17.1793 132.724 16.8195 133.61 16.8195C134.495 16.8195 135.314 17.1946 135.909 17.8069C136.497 18.4116 136.862 19.2459 136.862 20.172C136.862 21.0982 136.497 21.9325 135.909 22.5372C135.321 23.1418 134.51 23.5169 133.61 23.5169H131.534L130.105 41.3279H128.646L130.068 23.5169H123.98L125.402 41.3279H123.943V41.3203ZM122.38 22.009L122.232 20.2333C122.187 19.6822 121.964 19.1847 121.621 18.8326C121.316 18.5188 120.907 18.3198 120.431 18.3198C119.955 18.3198 119.493 18.5264 119.166 18.8632C118.838 19.2 118.637 19.6592 118.637 20.1644C118.637 20.6696 118.838 21.1365 119.158 21.4656C119.486 21.8024 119.932 22.009 120.423 22.009H122.366H122.38ZM131.66 22.009H133.61C134.101 22.009 134.547 21.8024 134.875 21.4656C135.202 21.1288 135.403 20.6696 135.403 20.1644C135.403 19.6592 135.202 19.2 134.875 18.8632C134.555 18.5264 134.101 18.3198 133.61 18.3198C133.119 18.3198 132.732 18.5188 132.419 18.8326C132.077 19.1847 131.861 19.6822 131.809 20.2333L131.66 22.009Z" fill="white"/>
<path fill-rule="evenodd" clip-rule="evenodd" d="M132.626 6.07492C132.159 5.88132 131.932 5.34519 132.136 4.88352C132.332 4.42185 132.875 4.19847 133.342 4.39952C133.727 4.56333 134.088 4.7346 134.428 4.91331C134.782 5.09946 135.129 5.30051 135.46 5.5239C135.89 5.79941 136.003 6.37277 135.724 6.78976C135.445 7.2142 134.865 7.32589 134.443 7.05038C134.156 6.86423 133.862 6.68552 133.553 6.52915C133.237 6.36533 132.927 6.2164 132.626 6.08982V6.07492ZM136.697 8.99386C136.358 8.6141 136.403 8.03329 136.787 7.70565C137.172 7.37057 137.76 7.41525 138.091 7.79501C139.071 8.9045 139.855 10.1853 140.383 11.5852C140.896 12.9404 141.182 14.3924 141.182 15.904C141.182 16.4103 140.768 16.8199 140.255 16.8199C139.742 16.8199 139.328 16.4103 139.328 15.904C139.328 14.6083 139.086 13.3723 138.657 12.2255C138.204 11.0416 137.534 9.94698 136.697 8.99386Z" fill="white"/>
<path fill-rule="evenodd" clip-rule="evenodd" d="M36.0939 52.1845H7.21878C7.42645 51.3042 8.21388 50.6495 9.15273 50.6495C9.196 50.6495 9.24359 50.6495 9.28685 50.6538C9.74114 49.5351 10.8401 48.7459 12.1207 48.7459C12.6832 48.7459 13.2067 48.8977 13.6566 49.1622C14.2061 47.341 15.8934 46.0185 17.888 46.0185C18.2947 46.0185 18.6884 46.0749 19.0605 46.1789C20.0253 44.0412 22.1712 42.5539 24.6676 42.5539C27.6226 42.5539 30.0931 44.6483 30.6858 47.4321C30.7377 47.4321 30.7853 47.4321 30.8329 47.4321C32.7279 47.4321 34.2898 48.85 34.5234 50.6885C35.2979 50.8316 35.9122 51.4256 36.0896 52.1888L36.0939 52.1845Z" fill="#ECECFF"/>
<path fill-rule="evenodd" clip-rule="evenodd" d="M41.6168 82.6455H0C0.299311 81.3784 1.4342 80.4359 2.78734 80.4359C2.8497 80.4359 2.91829 80.4359 2.98064 80.4421C3.63539 78.8318 5.21925 77.6957 7.06501 77.6957C7.87564 77.6957 8.63015 77.9142 9.27866 78.295C10.0706 75.6734 12.5025 73.7696 15.3771 73.7696C15.9633 73.7696 16.5307 73.8508 17.067 74.0006C18.4576 70.9234 21.5504 68.7824 25.1484 68.7824C29.4074 68.7824 32.9679 71.7972 33.8222 75.8045C33.897 75.8045 33.9656 75.8045 34.0342 75.8045C36.7654 75.8045 39.0165 77.8455 39.3532 80.4921C40.4694 80.698 41.3549 81.5532 41.6105 82.6517L41.6168 82.6455Z" fill="#ECECFF"/>
<ellipse cx="174.031" cy="57.5182" rx="3.72091" ry="3.7247" fill="#AEAAF0"/>
<ellipse cx="82.3687" cy="6.7121" rx="1.89266" ry="1.89493" fill="#AEAAF0"/>
<ellipse cx="34.2434" cy="104.934" rx="1.89266" ry="1.89493" fill="#AEAAF0"/>
<path d="M117.978 89.5888L180.478 90.0566C182.026 90.0682 183.276 91.3381 183.264 92.888L182.835 150.31C182.824 151.86 181.555 153.111 180.007 153.1L117.507 152.632C115.959 152.62 114.709 151.351 114.721 149.801L115.149 92.3782C115.161 90.8283 116.43 89.5772 117.978 89.5888Z" fill="white"/>
<g filter="url(#filter0_d_1_25)">
<path d="M181.246 90.0623L117.206 89.583C116.08 89.5746 115.16 90.4815 115.151 91.6087L114.711 150.57C114.703 151.697 115.609 152.618 116.735 152.626L180.775 153.106C181.901 153.114 182.821 152.207 182.83 151.08L183.27 92.1186C183.278 90.9914 182.372 90.0708 181.246 90.0623Z" fill="#FCFCFF"/>
</g>
<path opacity="0.2" d="M181.227 92.8046L117.187 92.3253C116.061 92.3169 115.141 93.2238 115.132 94.351L115.099 98.8287C115.091 99.9559 115.997 100.877 117.123 100.885L181.163 101.364C182.289 101.373 183.209 100.466 183.218 99.3386L183.251 94.8609C183.259 93.7337 182.353 92.8131 181.227 92.8046Z" fill="#9199F1"/>
<path d="M181.248 90.0591L117.207 89.5797C116.081 89.5713 115.161 90.4783 115.153 91.6055L115.119 96.0832C115.111 97.2104 116.017 98.131 117.143 98.1394L181.184 98.6187C182.31 98.6272 183.229 97.7202 183.238 96.593L183.271 92.1153C183.28 90.9881 182.374 90.0675 181.248 90.0591Z" fill="#B0B9FF"/>
<path d="M119.511 94.9689C120.112 95.0875 120.696 94.6958 120.814 94.0941C120.933 93.4923 120.541 92.9084 119.94 92.7898C119.339 92.6713 118.756 93.063 118.638 93.6647C118.519 94.2664 118.91 94.8504 119.511 94.9689Z" fill="white"/>
<path d="M124.392 95.0052C124.993 95.1237 125.576 94.732 125.694 94.1303C125.813 93.5286 125.422 92.9447 124.821 92.8261C124.22 92.7075 123.636 93.0992 123.518 93.701C123.4 94.3027 123.791 94.8866 124.392 95.0052Z" fill="white"/>
<path d="M129.272 95.0423C129.873 95.1608 130.456 94.7691 130.575 94.1674C130.693 93.5657 130.302 92.9818 129.701 92.8632C129.1 92.7446 128.517 93.1363 128.398 93.7381C128.28 94.3398 128.671 94.9237 129.272 95.0423Z" fill="white"/>
<path d="M174.909 120.864L155.249 120.717C155.003 120.714 154.807 120.515 154.81 120.272C154.813 120.03 155.013 119.83 155.255 119.833L174.915 119.98C175.16 119.983 175.356 120.183 175.353 120.425C175.35 120.671 175.15 120.867 174.909 120.864Z" fill="#9199F1"/>
<path d="M174.874 125.287L155.214 125.14C154.968 125.137 154.772 124.937 154.775 124.695C154.779 124.449 154.978 124.253 155.22 124.256L174.88 124.403C175.125 124.406 175.321 124.606 175.318 124.848C175.315 125.094 175.116 125.29 174.874 125.287Z" fill="#9199F1"/>
<path opacity="0.2" d="M174.842 129.71L155.182 129.563C154.937 129.56 154.741 129.36 154.744 129.118C154.747 128.876 154.947 128.676 155.189 128.679L174.848 128.826C175.094 128.829 175.29 129.029 175.287 129.271C175.284 129.513 175.084 129.713 174.842 129.71Z" fill="url(#paint3_linear_1_25)"/>
<path opacity="0.2" d="M174.808 134.128L155.148 133.982C154.903 133.978 154.707 133.779 154.71 133.537C154.713 133.294 154.912 133.095 155.154 133.098L174.814 133.244C175.06 133.248 175.256 133.447 175.253 133.689C175.25 133.932 175.05 134.131 174.808 134.128Z" fill="url(#paint4_linear_1_25)"/>
<path opacity="0.2" d="M174.777 138.552L155.117 138.406C154.871 138.402 154.675 138.203 154.678 137.961C154.681 137.718 154.881 137.519 155.123 137.522L174.783 137.668C175.028 137.672 175.224 137.871 175.221 138.113C175.218 138.356 175.019 138.555 174.777 138.552Z" fill="url(#paint5_linear_1_25)"/>
<path d="M145.449 119.669L125.789 119.522C125.543 119.518 125.347 119.319 125.35 119.077C125.353 118.835 125.553 118.635 125.795 118.638L145.455 118.785C145.7 118.788 145.896 118.987 145.893 119.23C145.89 119.475 145.691 119.672 145.449 119.669Z" fill="#9199F1"/>
<path d="M145.417 124.092L125.758 123.945C125.512 123.941 125.316 123.742 125.319 123.5C125.322 123.258 125.522 123.058 125.764 123.061L145.424 123.207C145.669 123.211 145.865 123.41 145.862 123.653C145.858 123.898 145.659 124.094 145.417 124.092Z" fill="#9199F1"/>
<path opacity="0.2" d="M145.382 128.514L125.722 128.368C125.477 128.364 125.281 128.165 125.284 127.923C125.287 127.681 125.487 127.481 125.729 127.484L145.389 127.63C145.634 127.634 145.83 127.833 145.827 128.075C145.824 128.318 145.624 128.517 145.382 128.514Z" fill="url(#paint6_linear_1_25)"/>
<path opacity="0.2" d="M145.351 132.937L125.691 132.791C125.446 132.787 125.25 132.588 125.253 132.346C125.256 132.103 125.455 131.904 125.697 131.907L145.357 132.053C145.603 132.057 145.799 132.256 145.796 132.498C145.792 132.744 145.593 132.94 145.351 132.937Z" fill="url(#paint7_linear_1_25)"/>
<path opacity="0.2" d="M145.316 137.36L125.656 137.214C125.411 137.21 125.215 137.011 125.218 136.769C125.221 136.526 125.421 136.327 125.662 136.33L145.322 136.476C145.568 136.48 145.764 136.679 145.761 136.921C145.757 137.167 145.558 137.363 145.316 137.36Z" fill="url(#paint8_linear_1_25)"/>
<path opacity="0.2" d="M124.551 107.066L115.037 106.993L115.05 105.408L124.565 105.481C125.001 105.485 125.356 105.843 125.352 106.279C125.348 106.715 124.991 107.071 124.555 107.067L124.551 107.066Z" fill="url(#paint9_linear_1_25)"/>
<path d="M139.24 106.044C137.52 104.297 134.7 104.275 132.951 105.995C131.312 107.614 131.194 110.205 132.613 111.96L130.316 114.226C130.144 114.397 130.142 114.673 130.313 114.849C130.484 115.021 130.76 115.023 130.935 114.852L133.232 112.586C134.966 114.034 137.556 113.955 139.195 112.336C140.94 110.615 140.963 107.792 139.244 106.041L139.24 106.044ZM133.531 111.674C132.151 110.27 132.167 108.007 133.571 106.621C134.973 105.24 137.235 105.256 138.618 106.661C139.999 108.065 139.982 110.329 138.579 111.714C137.176 113.096 134.915 113.079 133.531 111.674Z" fill="url(#paint10_linear_1_25)"/>
<g filter="url(#filter1_d_1_25)">
<path d="M185.701 84.6122L171.288 84.3255C169.734 84.2946 168.449 85.5308 168.418 87.0868L168.131 101.514C168.1 103.07 169.335 104.357 170.89 104.387L185.303 104.674C186.857 104.705 188.142 103.469 188.173 101.913L188.459 87.4855C188.49 85.9295 187.255 84.6431 185.701 84.6122Z" fill="#7B89F0"/>
</g>
<path d="M179.72 93.5161C180.507 92.7587 180.532 91.506 179.775 90.718C179.019 89.93 177.768 89.9051 176.98 90.6625C176.193 91.4198 176.168 92.6726 176.925 93.4605C177.681 94.2485 178.933 94.2734 179.72 93.5161Z" fill="white"/>
<path d="M180.437 94.6379L176.152 94.5546C174.97 94.5306 173.99 95.4728 173.969 96.6567C173.945 97.8398 174.886 98.8211 176.069 98.8415L180.354 98.9249C181.536 98.9488 182.516 98.0066 182.537 96.8227C182.561 95.6396 181.62 94.6583 180.438 94.6343L180.437 94.6379Z" fill="white"/>
<g opacity="0.2">
<path d="M129.877 140.944L125.718 140.921L125.714 141.812L129.872 141.834L129.877 140.944Z" fill="url(#paint11_linear_1_25)"/>
<path d="M149.493 144.396L143.04 144.361L143.035 145.252L149.489 145.287L149.493 144.396Z" fill="url(#paint12_linear_1_25)"/>
<path d="M138.633 144.341L134.694 144.32L134.689 145.211L138.628 145.232L138.633 144.341Z" fill="url(#paint13_linear_1_25)"/>
<path d="M133.503 144.315L125.699 144.273L125.694 145.163L133.499 145.206L133.503 144.315Z" fill="url(#paint14_linear_1_25)"/>
<path d="M137.305 140.984L131.145 140.951L131.14 141.841L137.301 141.875L137.305 140.984Z" fill="url(#paint15_linear_1_25)"/>
<path d="M141.558 144.353L139.867 144.344L139.862 145.234L141.553 145.244L141.558 144.353Z" fill="url(#paint16_linear_1_25)"/>
<path d="M149.511 141.098L144.906 141.073L144.902 141.964L149.507 141.988L149.511 141.098Z" fill="url(#paint17_linear_1_25)"/>
<path d="M155.055 144.429L151.131 144.408L151.126 145.298L155.051 145.319L155.055 144.429Z" fill="url(#paint18_linear_1_25)"/>
<path d="M143.702 141.067L138.822 141.041L138.818 141.931L143.698 141.958L143.702 141.067Z" fill="url(#paint19_linear_1_25)"/>
</g>
<defs>
<filter id="filter0_d_1_25" x="111.164" y="86.0362" width="82.7461" height="77.7098" filterUnits="userSpaceOnUse" color-interpolation-filters="sRGB">
<feFlood flood-opacity="0" result="BackgroundImageFix"/>
<feColorMatrix in="SourceAlpha" type="matrix" values="0 0 0 0 0 0 0 0 0 0 0 0 0 0 0 0 0 0 127 0" result="hardAlpha"/>
<feOffset dx="3.54678" dy="3.54678"/>
<feGaussianBlur stdDeviation="3.54678"/>
<feComposite in2="hardAlpha" operator="out"/>
<feColorMatrix type="matrix" values="0 0 0 0 0.266667 0 0 0 0 0.313726 0 0 0 0 0.737255 0 0 0 0.2 0"/>
<feBlend mode="normal" in2="BackgroundImageFix" result="effect1_dropShadow_1_25"/>
<feBlend mode="normal" in="SourceGraphic" in2="effect1_dropShadow_1_25" result="shape"/>
</filter>
<filter id="filter1_d_1_25" x="166.949" y="83.1426" width="29.7872" height="29.8079" filterUnits="userSpaceOnUse" color-interpolation-filters="sRGB">
<feFlood flood-opacity="0" result="BackgroundImageFix"/>
<feColorMatrix in="SourceAlpha" type="matrix" values="0 0 0 0 0 0 0 0 0 0 0 0 0 0 0 0 0 0 127 0" result="hardAlpha"/>
<feOffset dx="3.54678" dy="3.54678"/>
<feGaussianBlur stdDeviation="2.36452"/>
<feComposite in2="hardAlpha" operator="out"/>
<feColorMatrix type="matrix" values="0 0 0 0 0.265817 0 0 0 0 0.31297 0 0 0 0 0.737355 0 0 0 0.25 0"/>
<feBlend mode="normal" in2="BackgroundImageFix" result="effect1_dropShadow_1_25"/>
<feBlend mode="normal" in="SourceGraphic" in2="effect1_dropShadow_1_25" result="shape"/>
</filter>
<linearGradient id="paint0_linear_1_25" x1="104.62" y1="176.118" x2="104.62" y2="22.0262" gradientUnits="userSpaceOnUse">
<stop stop-color="#444B8C"/>
<stop offset="1" stop-color="#26264F"/>
</linearGradient>
<linearGradient id="paint1_linear_1_25" x1="58.5323" y1="99.0693" x2="150.564" y2="99.0693" gradientUnits="userSpaceOnUse">
<stop stop-color="#444B8C"/>
<stop offset="1" stop-color="#26264F"/>
</linearGradient>
<linearGradient id="paint2_linear_1_25" x1="118.619" y1="47.3313" x2="133.501" y2="47.3313" gradientUnits="userSpaceOnUse">
<stop stop-color="#444B8C"/>
<stop offset="1" stop-color="#26264F"/>
</linearGradient>
<linearGradient id="paint3_linear_1_25" x1="154.741" y1="129.118" x2="175.284" y2="129.272" gradientUnits="userSpaceOnUse">
<stop stop-color="#5D34D0"/>
<stop offset="1" stop-color="#619CD3"/>
</linearGradient>
<linearGradient id="paint4_linear_1_25" x1="154.708" y1="133.54" x2="175.251" y2="133.694" gradientUnits="userSpaceOnUse">
<stop stop-color="#5D34D0"/>
<stop offset="1" stop-color="#619CD3"/>
</linearGradient>
<linearGradient id="paint5_linear_1_25" x1="154.675" y1="137.963" x2="175.218" y2="138.117" gradientUnits="userSpaceOnUse">
<stop stop-color="#5D34D0"/>
<stop offset="1" stop-color="#619CD3"/>
</linearGradient>
<linearGradient id="paint6_linear_1_25" x1="125.281" y1="127.926" x2="145.824" y2="128.08" gradientUnits="userSpaceOnUse">
<stop stop-color="#5D34D0"/>
<stop offset="1" stop-color="#619CD3"/>
</linearGradient>
<linearGradient id="paint7_linear_1_25" x1="125.248" y1="132.348" x2="145.791" y2="132.502" gradientUnits="userSpaceOnUse">
<stop stop-color="#5D34D0"/>
<stop offset="1" stop-color="#619CD3"/>
</linearGradient>
<linearGradient id="paint8_linear_1_25" x1="125.215" y1="136.771" x2="145.758" y2="136.925" gradientUnits="userSpaceOnUse">
<stop stop-color="#5D34D0"/>
<stop offset="1" stop-color="#619CD3"/>
</linearGradient>
<linearGradient id="paint9_linear_1_25" x1="115.04" y1="106.205" x2="125.348" y2="106.282" gradientUnits="userSpaceOnUse">
<stop stop-color="#5D34D0"/>
<stop offset="1" stop-color="#619CD3"/>
</linearGradient>
<linearGradient id="paint10_linear_1_25" x1="128.475" y1="108.203" x2="162.362" y2="120.012" gradientUnits="userSpaceOnUse">
<stop stop-color="#5E8EF0"/>
<stop offset="1" stop-color="#A7F5F7"/>
</linearGradient>
<linearGradient id="paint11_linear_1_25" x1="127.732" y1="154.024" x2="127.869" y2="128.582" gradientUnits="userSpaceOnUse">
<stop stop-color="#5D34D0"/>
<stop offset="1" stop-color="#619CD3"/>
</linearGradient>
<linearGradient id="paint12_linear_1_25" x1="146.216" y1="154.12" x2="146.353" y2="128.675" gradientUnits="userSpaceOnUse">
<stop stop-color="#5D34D0"/>
<stop offset="1" stop-color="#619CD3"/>
</linearGradient>
<linearGradient id="paint13_linear_1_25" x1="136.614" y1="154.072" x2="136.751" y2="128.627" gradientUnits="userSpaceOnUse">
<stop stop-color="#5D34D0"/>
<stop offset="1" stop-color="#619CD3"/>
</linearGradient>
<linearGradient id="paint14_linear_1_25" x1="129.552" y1="154.035" x2="129.69" y2="128.59" gradientUnits="userSpaceOnUse">
<stop stop-color="#5D34D0"/>
<stop offset="1" stop-color="#619CD3"/>
</linearGradient>
<linearGradient id="paint15_linear_1_25" x1="134.161" y1="154.058" x2="134.298" y2="128.617" gradientUnits="userSpaceOnUse">
<stop stop-color="#5D34D0"/>
<stop offset="1" stop-color="#619CD3"/>
</linearGradient>
<linearGradient id="paint16_linear_1_25" x1="140.663" y1="154.09" x2="140.8" y2="128.644" gradientUnits="userSpaceOnUse">
<stop stop-color="#5D34D0"/>
<stop offset="1" stop-color="#619CD3"/>
</linearGradient>
<linearGradient id="paint17_linear_1_25" x1="147.139" y1="154.129" x2="147.277" y2="128.687" gradientUnits="userSpaceOnUse">
<stop stop-color="#5D34D0"/>
<stop offset="1" stop-color="#619CD3"/>
</linearGradient>
<linearGradient id="paint18_linear_1_25" x1="153.048" y1="154.16" x2="153.185" y2="128.714" gradientUnits="userSpaceOnUse">
<stop stop-color="#5D34D0"/>
<stop offset="1" stop-color="#619CD3"/>
</linearGradient>
<linearGradient id="paint19_linear_1_25" x1="141.195" y1="154.094" x2="141.333" y2="128.652" gradientUnits="userSpaceOnUse">
<stop stop-color="#5D34D0"/>
<stop offset="1" stop-color="#619CD3"/>
</linearGradient>
</defs>
</svg>
