<svg width="196" height="189" viewBox="0 0 196 189" fill="none" xmlns="http://www.w3.org/2000/svg">
<path d="M168.639 44.1538C130.324 -3.8234 39.6158 -6.50992 12.9419 31.5449C-1.75227 52.5175 4.38412 83.856 7.41727 99.3224C12.9929 127.784 26.744 146.102 29.7453 149.992C37.0287 159.421 54.7242 182.326 81.3535 187.566C126.844 196.512 183.614 150.962 186.755 99.5696C188.571 69.9418 171.953 48.3039 168.639 44.1538Z" fill="#B3E5EA"/>
<path d="M16.6849 9.33899C16.3289 9.33899 16.0337 9.05248 16.0337 8.68783V4.3034C16.0337 3.94744 16.3202 3.65225 16.6849 3.65225C17.0495 3.65225 17.336 3.94744 17.336 4.3034V8.68783C17.336 9.0438 17.0408 9.33899 16.6849 9.33899Z" fill="#8CCED5"/>
<path d="M174.946 163.948C174.59 163.948 174.295 163.661 174.295 163.296V158.912C174.295 158.556 174.581 158.261 174.946 158.261C175.311 158.261 175.597 158.556 175.597 158.912V163.296C175.597 163.652 175.302 163.948 174.946 163.948Z" fill="#8CCED5"/>
<path d="M16.6849 17.5352C16.3289 17.5352 16.0337 17.2487 16.0337 16.8841V12.4996C16.0337 12.1437 16.3202 11.8485 16.6849 11.8485C17.0495 11.8485 17.336 12.1437 17.336 12.4996V16.8841C17.336 17.24 17.0408 17.5352 16.6849 17.5352Z" fill="#8CCED5"/>
<path d="M174.946 172.143C174.59 172.143 174.295 171.857 174.295 171.492V167.108C174.295 166.752 174.581 166.457 174.946 166.457C175.311 166.457 175.597 166.752 175.597 167.108V171.492C175.597 171.848 175.302 172.143 174.946 172.143Z" fill="#8CCED5"/>
<path d="M22.9711 11.2491H18.5866C18.2307 11.2491 17.9355 10.9626 17.9355 10.598C17.9355 10.2333 18.222 9.94684 18.5866 9.94684H22.9711C23.327 9.94684 23.6222 10.2333 23.6222 10.598C23.6222 10.9626 23.3357 11.2491 22.9711 11.2491Z" fill="#8CCED5"/>
<path d="M181.232 165.857H176.847C176.491 165.857 176.196 165.571 176.196 165.206C176.196 164.841 176.483 164.555 176.847 164.555H181.232C181.588 164.555 181.883 164.841 181.883 165.206C181.883 165.571 181.597 165.857 181.232 165.857Z" fill="#8CCED5"/>
<path d="M14.7749 11.2491H10.3904C10.0345 11.2491 9.73929 10.9626 9.73929 10.598C9.73929 10.2333 10.0258 9.94684 10.3904 9.94684H14.7749C15.1308 9.94684 15.426 10.2333 15.426 10.598C15.426 10.9626 15.1395 11.2491 14.7749 11.2491Z" fill="#8CCED5"/>
<path d="M173.036 165.857H168.651C168.295 165.857 168 165.571 168 165.206C168 164.841 168.287 164.555 168.651 164.555H173.036C173.392 164.555 173.687 164.841 173.687 165.206C173.687 165.571 173.4 165.857 173.036 165.857Z" fill="#8CCED5"/>
<circle cx="9.97132" cy="163.501" r="9.97132" fill="#B3E5EA"/>
<circle cx="154.087" cy="5.56539" r="5.56539" fill="#AEF1F8"/>
<circle cx="185.044" cy="28" r="10.9565" fill="#AEF1F8"/>
<g filter="url(#filter0_d_1_449)">
<g opacity="0.25" style="mix-blend-mode:multiply">
<path d="M155.279 56.2505H43.7115C40.1861 56.2505 37.3282 59.1084 37.3282 62.6337V134.001C37.3282 137.526 40.1861 140.384 43.7115 140.384H155.279C158.804 140.384 161.662 137.526 161.662 134.001V62.6337C161.662 59.1084 158.804 56.2505 155.279 56.2505Z" fill="#5E749C"/>
</g>
<path d="M152.642 54.4465H41.0749C37.5495 54.4465 34.6917 57.3044 34.6917 60.8297V132.197C34.6917 135.722 37.5495 138.58 41.0749 138.58H152.642C156.168 138.58 159.026 135.722 159.026 132.197V60.8297C159.026 57.3044 156.168 54.4465 152.642 54.4465Z" fill="white"/>
<path d="M156.028 54.1968L37.689 54.4466C36.0377 54.4466 34.7055 55.7926 34.7055 57.4439V60.2886L159.026 60.0388V57.1941C159.026 55.5428 157.68 54.2107 156.014 54.2107L156.028 54.1968Z" fill="#7883B9"/>
<path d="M41.5883 57.9852C41.5883 58.5402 41.1443 58.9843 40.5892 58.9982C40.0342 58.9982 39.5901 58.5541 39.5762 57.999C39.5762 57.444 40.0203 56.9999 40.5753 56.9861C41.1304 56.9861 41.5745 57.4301 41.5883 57.9852Z" fill="white"/>
<path d="M45.8344 57.9713C45.8344 58.5263 45.3904 58.9704 44.8353 58.9842C44.2803 58.9842 43.8362 58.5402 43.8223 57.9851C43.8223 57.4301 44.2664 56.986 44.8214 56.9721C45.3765 56.9721 45.8206 57.4162 45.8344 57.9713Z" fill="white"/>
<path d="M50.0947 57.9573C50.0947 58.5124 49.6506 58.9564 49.0955 58.9703C48.5405 58.9842 48.0964 58.5263 48.0826 57.9712C48.0826 57.4162 48.5266 56.9721 49.0817 56.9582C49.6367 56.9443 50.0808 57.4023 50.0947 57.9573Z" fill="white"/>
<path d="M146.148 92.1632H119.228C118.063 92.1632 117.118 93.1076 117.118 94.2725V115.476C117.118 116.641 118.063 117.585 119.228 117.585H146.148C147.313 117.585 148.257 116.641 148.257 115.476V94.2725C148.257 93.1076 147.313 92.1632 146.148 92.1632Z" fill="#C2D3EB"/>
<path d="M106.42 92.1632H79.4991C78.3342 92.1632 77.3898 93.1076 77.3898 94.2725V115.476C77.3898 116.641 78.3342 117.585 79.4991 117.585H106.42C107.584 117.585 108.529 116.641 108.529 115.476V94.2725C108.529 93.1076 107.584 92.1632 106.42 92.1632Z" fill="#C2D3EB"/>
<path d="M50.8612 67.7723L40.5648 67.7939C40.0207 67.795 39.5805 68.2339 39.5816 68.7742C39.5828 69.3145 40.0248 69.7516 40.5689 69.7505L50.8653 69.7289C51.4094 69.7278 51.8496 69.2888 51.8485 68.7485C51.8474 68.2082 51.4053 67.7712 50.8612 67.7723Z" fill="#A0C8EF"/>
<path d="M46.3363 87.0704L40.5636 87.0825C40.0195 87.0836 39.5793 87.5226 39.5804 88.0629C39.5816 88.6032 40.0236 89.0402 40.5677 89.0391L46.3404 89.027C46.8845 89.0259 47.3247 88.5869 47.3236 88.0466C47.3224 87.5063 46.8804 87.0693 46.3363 87.0704Z" fill="#A0C8EF"/>
<path d="M40.5382 71.2469L61.5057 71.1994C62.0468 71.1981 62.4919 71.6412 62.4931 72.1824C62.4944 72.7235 62.0513 73.1686 61.5101 73.1698L40.5427 73.2174C40.0015 73.2186 39.5565 72.7756 39.5552 72.2344C39.554 71.6932 39.9971 71.2482 40.5382 71.2469Z" fill="#A0C8EF"/>
<path d="M39.9231 77.4764L67.4264 77.4092C67.6207 77.4087 67.7876 77.5748 67.7881 77.7691C67.7885 77.9634 67.6224 78.1303 67.4282 78.1308L39.9249 78.198C39.7306 78.1984 39.5637 78.0323 39.5632 77.8381C39.5628 77.6438 39.7289 77.4769 39.9231 77.4764Z" fill="#7BCED6"/>
<path d="M39.9193 75.9085L67.4225 75.8412C67.6168 75.8408 67.7837 76.0069 67.7842 76.2012C67.7847 76.3954 67.6186 76.5624 67.4243 76.5628L39.921 76.63C39.7268 76.6305 39.5598 76.4644 39.5594 76.2701C39.5589 76.0759 39.725 75.9089 39.9193 75.9085Z" fill="#7BCED6"/>
<path d="M67.4301 78.9771L39.9407 79.0443C39.7415 79.0447 39.5803 79.2036 39.5808 79.399C39.5813 79.5944 39.7432 79.7524 39.9425 79.752L67.4319 79.6848C67.6311 79.6843 67.7923 79.5255 67.7918 79.3301C67.7913 79.1346 67.6294 78.9766 67.4301 78.9771Z" fill="#7BCED6"/>
<path d="M39.9169 80.6125L67.4201 80.5453C67.6144 80.5448 67.7813 80.7109 67.7818 80.9052C67.7823 81.0995 67.6162 81.2664 67.4219 81.2669L39.9186 81.3341C39.7244 81.3345 39.5574 81.1684 39.557 80.9742C39.5565 80.7799 39.7226 80.613 39.9169 80.6125Z" fill="#7BCED6"/>
<path d="M60.347 82.1166L39.9347 82.1665C39.7354 82.167 39.5743 82.3258 39.5747 82.5212C39.5752 82.7167 39.7371 82.8747 39.9364 82.8742L60.3488 82.8243C60.548 82.8238 60.7092 82.665 60.7087 82.4696C60.7082 82.2742 60.5463 82.1161 60.347 82.1166Z" fill="#7BCED6"/>
<path d="M98.7182 123.899L77.5703 123.954C77.3621 123.954 77.2095 123.732 77.2095 123.469C77.2095 123.191 77.376 122.969 77.5703 122.969L98.7182 122.914C98.9263 122.914 99.079 123.136 99.079 123.399C99.079 123.677 98.9124 123.899 98.7182 123.899Z" fill="#AEF1F8"/>
<path d="M98.7181 121.72L77.5703 121.776C77.3621 121.776 77.2095 121.554 77.2095 121.29C77.2095 121.012 77.376 120.79 77.5703 120.79L98.7181 120.735C98.9263 120.735 99.0789 120.957 99.0789 121.221C99.0789 121.498 98.9124 121.72 98.7181 121.72Z" fill="#AEF1F8"/>
<path d="M98.7182 126.063L77.5703 126.119C77.3621 126.119 77.2095 125.897 77.2095 125.633C77.2095 125.356 77.376 125.134 77.5703 125.134L98.7182 125.078C98.9263 125.078 99.079 125.3 99.079 125.564C99.079 125.841 98.9124 126.063 98.7182 126.063Z" fill="#AEF1F8"/>
<path d="M98.6666 127.235L77.6437 127.294C77.4062 127.295 77.2141 127.488 77.2148 127.725L77.2151 127.85C77.2158 128.088 77.4089 128.28 77.6465 128.279L98.6694 128.221C98.907 128.22 99.099 128.027 99.0984 127.789L99.098 127.664C99.0973 127.427 98.9042 127.235 98.6666 127.235Z" fill="#AEF1F8"/>
<path d="M93.7226 130.393L77.5703 130.435C77.3621 130.435 77.2095 130.213 77.2095 129.949C77.2095 129.672 77.376 129.45 77.5703 129.45L93.7226 129.408C93.9308 129.408 94.0834 129.63 94.0834 129.894C94.0834 130.171 93.9169 130.393 93.7226 130.393Z" fill="#AEF1F8"/>
<path d="M111.679 75.6779L76.7932 75.7889C76.5573 75.7889 76.363 75.5808 76.363 75.3032V74.3457C76.363 74.0821 76.5573 73.8601 76.7932 73.8601L111.679 73.7491C111.915 73.7491 112.109 73.9572 112.109 74.2347V75.1922C112.109 75.4559 111.915 75.6779 111.679 75.6779Z" fill="#7BCED6"/>
<path d="M111.679 71.4455L76.7931 71.5565C76.5572 71.5565 76.363 71.3483 76.363 71.0708V70.1133C76.363 69.8497 76.5572 69.6276 76.7931 69.6276L111.679 69.5166C111.915 69.5166 112.109 69.7248 112.109 70.0023V70.9598C112.109 71.2234 111.915 71.4455 111.679 71.4455Z" fill="#7BCED6"/>
<path d="M111.679 79.9103L76.7932 80.0213C76.5573 80.0213 76.363 79.8132 76.363 79.5357V78.5782C76.363 78.3145 76.5573 78.0925 76.7932 78.0925L111.679 77.9815C111.915 77.9815 112.109 78.1896 112.109 78.4672V79.4246C112.109 79.6883 111.915 79.9103 111.679 79.9103Z" fill="#7BCED6"/>
<path d="M111.693 84.1424L76.8071 84.2534C76.5712 84.2534 76.3769 84.0452 76.3769 83.7677V82.8102C76.3769 82.5466 76.5712 82.3245 76.8071 82.3245L111.693 82.2135C111.929 82.2135 112.123 82.4217 112.123 82.6992V83.6567C112.123 83.9203 111.929 84.1424 111.693 84.1424Z" fill="#7BCED6"/>
<path d="M101.369 88.3748L76.7932 88.4581C76.5573 88.4581 76.363 88.2499 76.363 87.9724V87.0149C76.363 86.7512 76.5573 86.5292 76.7932 86.5292L101.369 86.446C101.604 86.446 101.799 86.6541 101.799 86.9316V87.8891C101.799 88.1528 101.604 88.3748 101.369 88.3748Z" fill="#7BCED6"/>
<path d="M150.422 75.6779L115.537 75.7889C115.301 75.7889 115.106 75.5808 115.106 75.3032V74.3457C115.106 74.0821 115.301 73.8601 115.537 73.8601L150.422 73.7491C150.658 73.7491 150.852 73.9572 150.852 74.2347V75.1922C150.852 75.4559 150.658 75.6779 150.422 75.6779Z" fill="#7BCED6"/>
<path d="M150.422 71.4455L115.537 71.5565C115.301 71.5565 115.106 71.3483 115.106 71.0708V70.1133C115.106 69.8497 115.301 69.6276 115.537 69.6276L150.422 69.5166C150.658 69.5166 150.852 69.7248 150.852 70.0023V70.9598C150.852 71.2234 150.658 71.4455 150.422 71.4455Z" fill="#7BCED6"/>
<path d="M150.436 79.9103L115.551 80.0213C115.315 80.0213 115.12 79.8132 115.12 79.5357V78.5782C115.12 78.3145 115.315 78.0925 115.551 78.0925L150.436 77.9815C150.672 77.9815 150.866 78.1896 150.866 78.4672V79.4246C150.866 79.6883 150.672 79.9103 150.436 79.9103Z" fill="#7BCED6"/>
<path d="M150.436 84.1424L115.551 84.2534C115.315 84.2534 115.12 84.0452 115.12 83.7677V82.8102C115.12 82.5466 115.315 82.3245 115.551 82.3245L150.436 82.2135C150.672 82.2135 150.866 82.4217 150.866 82.6992V83.6567C150.866 83.9203 150.672 84.1424 150.436 84.1424Z" fill="#7BCED6"/>
<path d="M140.126 88.3748L115.551 88.4581C115.315 88.4581 115.12 88.2499 115.12 87.9724V87.0149C115.12 86.7512 115.315 86.5292 115.551 86.5292L140.126 86.446C140.362 86.446 140.556 86.6541 140.556 86.9316V87.8891C140.556 88.1528 140.362 88.3748 140.126 88.3748Z" fill="#7BCED6"/>
<path d="M123.155 123.913L102.007 123.968C101.799 123.968 101.646 123.746 101.646 123.483C101.646 123.205 101.813 122.983 102.007 122.983L123.155 122.928C123.363 122.928 123.515 123.15 123.515 123.427C123.515 123.705 123.349 123.927 123.155 123.927V123.913Z" fill="#AEF1F8"/>
<path d="M123.155 121.734L102.007 121.79C101.799 121.79 101.646 121.567 101.646 121.29C101.646 121.012 101.813 120.79 102.007 120.79L123.155 120.735C123.363 120.735 123.516 120.957 123.516 121.221C123.516 121.498 123.349 121.72 123.155 121.72V121.734Z" fill="#AEF1F8"/>
<path d="M123.169 126.077L102.021 126.133C101.813 126.133 101.66 125.911 101.66 125.647C101.66 125.37 101.826 125.148 102.021 125.148L123.169 125.092C123.377 125.092 123.529 125.314 123.529 125.578C123.529 125.855 123.363 126.077 123.169 126.077Z" fill="#AEF1F8"/>
<path d="M123.103 127.25L102.08 127.309C101.843 127.31 101.651 127.503 101.651 127.74L101.652 127.865C101.652 128.103 101.845 128.295 102.083 128.294L123.106 128.235C123.343 128.235 123.536 128.042 123.535 127.804L123.535 127.679C123.534 127.442 123.341 127.25 123.103 127.25Z" fill="#AEF1F8"/>
<path d="M118.159 130.421L102.007 130.463C101.799 130.463 101.646 130.24 101.646 129.977C101.646 129.699 101.813 129.477 102.007 129.477L118.159 129.436C118.367 129.436 118.52 129.658 118.52 129.921C118.52 130.199 118.353 130.421 118.159 130.421Z" fill="#AEF1F8"/>
<path d="M147.605 123.913L126.457 123.968C126.249 123.968 126.097 123.746 126.097 123.483C126.097 123.205 126.263 122.983 126.457 122.983L147.605 122.928C147.813 122.928 147.966 123.15 147.966 123.413C147.966 123.691 147.8 123.913 147.605 123.913Z" fill="#AEF1F8"/>
<path d="M147.605 121.734L126.457 121.789C126.249 121.789 126.097 121.567 126.097 121.304C126.097 121.026 126.263 120.804 126.457 120.804L147.605 120.749C147.813 120.749 147.966 120.971 147.966 121.234C147.966 121.512 147.799 121.734 147.605 121.734Z" fill="#AEF1F8"/>
<path d="M147.605 126.078L126.457 126.133C126.249 126.133 126.097 125.911 126.097 125.647C126.097 125.37 126.263 125.148 126.457 125.148L147.605 125.092C147.813 125.092 147.966 125.314 147.966 125.578C147.966 125.856 147.8 126.078 147.605 126.078Z" fill="#AEF1F8"/>
<path d="M147.605 128.242L126.457 128.298C126.249 128.298 126.097 128.076 126.097 127.812C126.097 127.534 126.263 127.312 126.457 127.312L147.605 127.257C147.813 127.257 147.966 127.479 147.966 127.742C147.966 128.02 147.8 128.242 147.605 128.242Z" fill="#AEF1F8"/>
<path d="M142.61 130.421L126.457 130.462C126.249 130.462 126.097 130.24 126.097 129.977C126.097 129.699 126.263 129.477 126.457 129.477L142.61 129.436C142.818 129.436 142.971 129.658 142.971 129.921C142.971 130.199 142.804 130.421 142.61 130.421Z" fill="#AEF1F8"/>
<path d="M37.9432 134.49L45.1868 134.475C45.381 134.474 45.5479 134.641 45.5483 134.835C45.5487 135.029 45.3825 135.196 45.1883 135.196L37.9447 135.212C37.7505 135.212 37.5836 135.046 37.5832 134.851C37.5828 134.657 37.7489 134.49 37.9432 134.49Z" fill="#DEE1E3"/>
<path d="M48.9058 134.495L56.1493 134.48C56.3436 134.479 56.5105 134.645 56.5109 134.84C56.5113 135.034 56.3451 135.201 56.1508 135.201L48.9073 135.216C48.713 135.217 48.5461 135.051 48.5457 134.856C48.5453 134.662 48.7115 134.495 48.9058 134.495Z" fill="#DEE1E3"/>
<path d="M59.882 134.486L67.1255 134.47C67.3198 134.47 67.4867 134.636 67.4871 134.83C67.4875 135.025 67.3213 135.192 67.127 135.192L59.8835 135.207C59.6892 135.208 59.5223 135.041 59.5219 134.847C59.5215 134.653 59.6877 134.486 59.882 134.486Z" fill="#DEE1E3"/>
<path d="M65.0951 93.8839H39.9646C38.6465 93.8839 37.5779 94.9525 37.5779 96.2707V104.277C37.5779 105.596 38.6465 106.664 39.9646 106.664H65.0951C66.4133 106.664 67.4819 105.596 67.4819 104.277V96.2707C67.4819 94.9525 66.4133 93.8839 65.0951 93.8839Z" fill="#D7E9FD"/>
</g>
<path d="M129.288 62.6751C129.288 73.7348 120.324 82.7129 109.264 82.7129C98.2047 82.7129 89.2404 73.7486 89.2404 62.6751C89.2404 51.6017 98.2047 42.6513 109.264 42.6513C120.324 42.6513 129.288 51.6155 129.288 62.6751Z" fill="#00A1C2"/>
<g opacity="0.5" style="mix-blend-mode:multiply">
<path d="M131.508 63.7854C131.508 74.845 122.544 83.8092 111.484 83.8092C100.425 83.8092 91.4467 74.845 91.4467 63.7854C91.4467 52.7258 100.411 43.7615 111.484 43.7615C122.558 43.7615 131.508 52.7258 131.508 63.7854Z" fill="#ED6A8C"/>
</g>
<path d="M119.783 61.3015L112.553 66.3525C110.555 67.7402 107.807 67.2545 106.42 65.2563L104.741 62.8556L107.141 61.1766L108.82 63.5772C109.292 64.2433 110.208 64.4098 110.86 63.938L118.076 58.8869C118.742 58.429 118.909 57.5132 118.437 56.8471L116.758 54.4326C116.3 53.7665 115.37 53.6139 114.718 54.0718L112.137 55.8757C111.221 55.0986 110.125 54.6407 108.959 54.5158L113.025 51.6711C115.023 50.2835 117.771 50.7692 119.158 52.7535L120.837 55.1541C122.225 57.1524 121.739 59.8999 119.755 61.2876M106.225 67.199L103.644 69.003C102.978 69.4748 102.062 69.3082 101.604 68.6422L99.9254 66.2415C99.4536 65.5754 99.6201 64.6596 100.286 64.2017L107.516 59.1506C108.182 58.6927 109.098 58.8453 109.556 59.5114L111.235 61.9259L113.649 60.2468L111.97 57.8462C110.569 55.848 107.835 55.3623 105.837 56.7638L98.6071 61.8149C96.6089 63.2164 96.1232 65.964 97.5248 67.9483L99.2038 70.349C100.591 72.3472 103.339 72.8329 105.337 71.4314L109.403 68.5867C108.251 68.4618 107.141 68.0038 106.225 67.2268" fill="white"/>
<defs>
<filter id="filter0_d_1_449" x="31.3217" y="50.8268" width="135.971" height="95.1873" filterUnits="userSpaceOnUse" color-interpolation-filters="sRGB">
<feFlood flood-opacity="0" result="BackgroundImageFix"/>
<feColorMatrix in="SourceAlpha" type="matrix" values="0 0 0 0 0 0 0 0 0 0 0 0 0 0 0 0 0 0 127 0" result="hardAlpha"/>
<feOffset dx="1.13" dy="1.13"/>
<feGaussianBlur stdDeviation="2.25"/>
<feColorMatrix type="matrix" values="0 0 0 0 0 0 0 0 0 0 0 0 0 0 0 0 0 0 0.37 0"/>
<feBlend mode="normal" in2="BackgroundImageFix" result="effect1_dropShadow_1_449"/>
<feBlend mode="normal" in="SourceGraphic" in2="effect1_dropShadow_1_449" result="shape"/>
</filter>
</defs>
</svg>
